<svg version="1.1" id="Layer_1" xmlns="http://www.w3.org/2000/svg" xmlns:xlink="http://www.w3.org/1999/xlink" viewBox="-153.61 -153.61 819.24 819.24" xml:space="preserve" width="117px" height="117px" fill="#3d3d3c" stroke="#877887" stroke-width="0.00512019"><g id="SVGRepo_bgCarrier" stroke-width="0"><path transform="translate(-153.61, -153.61), scale(25.60125)" d="M16,30.137473607435822C18.42742648645299,29.835321848050764,19.173878802129934,26.365658206227394,21.402879919856787,25.35806252838562C24.014786718525404,24.177378507936172,28.74961719628407,26.621332513205452,29.733844466876192,23.92923879995942C30.81979160587773,20.958917256171304,25.610040796766953,19.063415416482133,24.824179964140058,16C24.31522379201838,14.016004718316943,27.085877679304765,11.958681000963681,26.19045881479242,10.116535860113803C25.313591010322106,8.312555813242199,22.633385314031862,8.49462577731147,20.79079028591514,7.7021078163875565C19.177288019787593,7.0081248703874905,17.750617080533665,5.590896428499288,16,5.7335208635777235C14.264056552238332,5.874949823867339,12.956198757207591,7.307391051267265,11.639654212631289,8.447659557708464C10.50920645385626,9.426748326727699,9.931757769365804,10.823027104848613,8.88757691112243,11.89364061504602C7.425151073196098,13.393086661566798,4.991956330299188,14.03245228987862,4.273775443434715,15.999999999999998C3.5352104735670435,18.023392493196805,4.11432270177547,20.378608134380478,5.089395644102128,22.29924036189913C6.085923825444485,24.262133656989143,7.972597383969757,25.522854984096877,9.76043379399925,26.807245685983062C11.708303961964111,28.206605447413516,13.619949765241213,30.433728249902053,16,30.137473607435822" fill="#e7e7d8" strokewidth="0"></path></g><g id="SVGRepo_tracerCarrier" stroke-linecap="round" stroke-linejoin="round" stroke="#e6e5e6" stroke-width="61.44228"> <g> <polygon style="fill:#454045554e5a;" points="350.316,80.852 0,431.166 0,512.009 80.841,512.009 431.157,161.693 "></polygon> <rect x="406.542" y="10.214" transform="matrix(0.7071 -0.7071 0.7071 0.7071 82.5924 334.1501)" style="fill:#454045554e5a;" width="76.218" height="114.327"></rect> </g> <g> <polygon style="fill:#45404555;" points="0,512.009 80.841,512.009 431.157,161.693 390.736,121.273 "></polygon> <rect x="426.727" y="59.008" transform="matrix(-0.7071 0.7071 -0.7071 -0.7071 855.459 -179.1639)" style="fill:#45404555;" width="76.218" height="57.163"></rect> </g> </g><g id="SVGRepo_iconCarrier"> <g> <polygon style="fill:#454045554e5a;" points="350.316,80.852 0,431.166 0,512.009 80.841,512.009 431.157,161.693 "></polygon> <rect x="406.542" y="10.214" transform="matrix(0.7071 -0.7071 0.7071 0.7071 82.5924 334.1501)" style="fill:#ec642b;" width="76.218" height="114.327"></rect> </g> <g> <polygon style="fill:#504f4e;" points="0,512.009 80.841,512.009 431.157,161.693 390.736,121.273 "></polygon> <rect x="426.727" y="59.008" transform="matrix(-0.7071 0.7071 -0.7071 -0.7071 855.459 -179.1639)" style="fill:#45404555;" width="76.218" height="57.163"></rect> </g> </g></svg>